<svg width="1280" height="470" viewBox="0 0 1280 470" xmlns="http://www.w3.org/2000/svg">

<style>
.title{
font:700 28px Inter,Segoe UI,sans-serif;
fill:#18181B;
}

.label{
font:600 12px Inter,Segoe UI,sans-serif;
fill:#A1A1AA;
letter-spacing:1.8px;
}

.code{
font:700 15px Inter,Segoe UI,sans-serif;
fill:#18181B;
}

.name{
font:600 22px Inter,Segoe UI,sans-serif;
fill:#18181B;
}

.desc{
font:500 16px Inter,Segoe UI,sans-serif;
fill:#71717A;
}

.arrow{
font:600 20px Inter,Segoe UI,sans-serif;
fill:#A1A1AA;
}
</style>


<rect
width="1280"
height="470"
rx="24"
fill="#FCFCFB"/>


<rect
x="40"
y="40"
width="1200"
height="390"
rx="20"
fill="#FFFFFF"
stroke="#E8E8E8"/>


<text
x="80"
y="90"
class="title">
Projects
</text>


<text
x="1160"
y="90"
text-anchor="end"
class="label">
VIEW ALL
</text>


<line
x1="80"
y1="120"
x2="1200"
y2="120"
stroke="#EEEEEE"/>


<!-- WorkSphere -->

<rect
x="80"
y="150"
width="42"
height="42"
rx="12"
fill="#F4F4F5"/>

<text
x="101"
y="176"
text-anchor="middle"
class="code">
WS
</text>

<text
x="150"
y="172"
class="name">
WorkSphere
</text>

<text
x="150"
y="198"
class="desc">
Job Platform
</text>


<text
x="1160"
y="180"
text-anchor="end"
class="arrow">
→
</text>


<line
x1="80"
y1="220"
x2="1200"
y2="220"
stroke="#EEEEEE"/>


<!-- Travault -->

<rect
x="80"
y="250"
width="42"
height="42"
rx="12"
fill="#F4F4F5"/>

<text
x="101"
y="276"
text-anchor="middle"
class="code">
TV
</text>

<text
x="150"
y="272"
class="name">
Travault
</text>

<text
x="150"
y="298"
class="desc">
Travel Planning Platform
</text>


<text
x="1160"
y="280"
text-anchor="end"
class="arrow">
→
</text>


<line
x1="80"
y1="320"
x2="1200"
y2="320"
stroke="#EEEEEE"/>


<!-- NextHeadline -->

<rect
x="80"
y="350"
width="42"
height="42"
rx="12"
fill="#F4F4F5"/>

<text
x="101"
y="376"
text-anchor="middle"
class="code">
NH
</text>

<text
x="150"
y="372"
class="name">
NextHeadline
</text>

<text
x="150"
y="398"
class="desc">
News Platform
</text>


<text
x="1160"
y="380"
text-anchor="end"
class="arrow">
→
</text>


</svg>