<svg xmlns="http://www.w3.org/2000/svg" width="1em" height="1em" viewBox="0 0 512 512">
  <path d="M0 0h512v512H0z" fill="none" />
  <path fill="#fff"
    d="M132.4 291.9c-18.9-11-31.9-35-31.9-58c0-27.5 16.8-52.2 42.2-61.8v79.6c0 4.5 1.7 7.6 5.8 10l87.5 50.8l-30.9 17.8c-1.7 1-4.5 1-6.2 0zm31.6-42.2l30.6 18.2V166.6c0-4.5 1.7-7.6 5.8-10l69-40.2c-11.7-9.3-26.1-14.4-41.2-14.4c-38.8 0-67.3 28.1-67.3 65.6v76.5c0 2.5.7 4.2 3.1 5.6m48.8 29.1l41.5 23.3l41.2-23.3v-49.4l-41.2-23.3l-41.5 23.3zm0-105v35.7l87.5-51.1c4.1-2.4 7.9-2.1 11.3 0l69.3 40.5c.7-3.1.7-6.9.7-9.6c0-34.7-26.4-66.9-68.3-66.9c-11 0-22.3 2.4-31.2 7.6l-66.2 38.4c-2.5 1.3-3.1 3-3.1 5.4M512 256c0 141.4-114.6 256-256 256S0 397.4 0 256S114.6 0 256 0s256 114.6 256 256m-85.7 18.4c0-24-10.3-47-29.2-63.8c1.7-7.2 3.1-14.8 3.1-22c0-48.4-39.5-84.8-84.8-84.8c-9.3 0-18.5 1.7-27.5 4.8c-15.4-15.4-36.4-25.1-59.7-25.1c-41.2 0-75.5 29.5-83.1 68.7c-38.4 9.6-63.2 45.3-63.2 81.7c0 24 10.3 47 29.2 63.8c-1.7 7.2-3.1 14.8-3.1 22c0 48.4 39.5 84.8 84.8 84.8c9.3 0 18.5-1.7 27.5-4.8c15.4 15.4 36.4 25.1 59.7 25.1c41.2 0 75.5-29.5 83.1-68.7c38.4-9.6 63.2-45.3 63.2-81.7m-50.5-58L309.2 178c-1.7-1-4.5-1-6.2 0l-30.9 17.8l87.9 51.1c4.1 2.4 5.8 5.5 5.8 10v79.3c25.4-9.6 41.9-34.7 41.9-61.8c0-23-13-47.1-31.9-58m-80.3 118v-35.7L208 349.5c-4.1 2.4-7.6 2.4-11.7 0l-69-39.8c-.3 3.1-.7 6.5-.7 10c0 36.7 28.8 66.2 68.3 66.2c11 0 22.3-2.4 31.2-7.6l66.2-38.4c2.5-1.3 3.2-3.1 3.2-5.5m49.1-75.8l-30.9-18.2v101.3c0 4.5-1.7 7.6-5.8 10l-69 40.2c11.7 9.3 26.1 14.4 41.2 14.4c38.8 0 67.6-28.1 67.6-65.6v-76.5c0-2.5-.7-4.2-3.1-5.6" />
</svg>